<svg width="240" height="240" viewBox="0 0 240 240" fill="none" xmlns="http://www.w3.org/2000/svg">
<path d="M207 120H210C210 70.2944 169.706 30 120 30C70.2944 30 30 70.2944 30 120H33C33 71.9512 71.9512 33 120 33C168.049 33 207 71.9512 207 120Z" fill="#FFEC65" fill-opacity="0.2"/>
<path d="M198.998 120C198.999 119.833 199 119.667 199 119.5C199 75.5934 163.407 40 119.5 40C75.5934 40 40 75.5934 40 119.5C40 119.667 40.0005 119.833 40.0015 120H44.0016C44.0005 119.833 44 119.667 44 119.5C44 77.8025 77.8025 44 119.5 44C161.198 44 195 77.8025 195 119.5C195 119.667 194.999 119.833 194.998 120H198.998Z" fill="#FFEC65" fill-opacity="0.6"/>
<path d="M186.998 120C186.999 119.833 187 119.667 187 119.5C187 82.2208 156.779 52 119.5 52C82.2208 52 52 82.2208 52 119.5C52 119.667 52.0006 119.833 52.0018 120H91.4015L116.42 94.5093C116.436 94.4926 116.453 94.4761 116.469 94.4596C116.879 94.0511 117.342 93.7283 117.836 93.4911C119.199 92.837 120.799 92.8356 122.164 93.4911C122.658 93.7283 123.121 94.0512 123.531 94.4596C123.547 94.4761 123.564 94.4926 123.58 94.5093L148.598 120H186.998Z" fill="#FFEC65"/>
<path d="M123.58 104.509L148.598 130H210C212.761 130 215 132.239 215 135C215 137.761 212.761 140 210 140H144.402L120 115.138L95.5985 140H30C27.2386 140 25 137.761 25 135C25 132.239 27.2386 130 30 130H91.4015L116.42 104.509C116.436 104.493 116.453 104.476 116.469 104.46C116.879 104.051 117.342 103.728 117.836 103.491C119.199 102.837 120.799 102.836 122.164 103.491C122.658 103.728 123.121 104.051 123.531 104.46C123.547 104.476 123.564 104.493 123.58 104.509Z" fill="#303030" fill-opacity="0.7"/>
</svg>
