<svg width="240" height="240" viewBox="0 0 240 240" fill="none" xmlns="http://www.w3.org/2000/svg">
<path d="M123.58 155.491L148.598 130H210C212.761 130 215 127.761 215 125C215 122.239 212.761 120 210 120H144.402L120 144.862L95.5985 120H30C27.2386 120 25 122.239 25 125C25 127.761 27.2386 130 30 130H91.4015L116.42 155.491C116.436 155.507 116.453 155.524 116.469 155.54C116.879 155.949 117.342 156.272 117.836 156.509C119.199 157.163 120.799 157.164 122.164 156.509C122.658 156.272 123.121 155.949 123.531 155.54C123.547 155.524 123.564 155.507 123.58 155.491Z" fill="#303030" fill-opacity="0.7"/>
<path d="M206.432 110H209.451C204.476 65.0005 166.326 30 120 30C73.6745 30 35.5238 65.0005 30.5493 110H33.5685C38.5282 66.6611 75.3331 33 120 33C164.667 33 201.472 66.6611 206.432 110Z" fill="#FFEC65" fill-opacity="0.2"/>
<path d="M40.5618 110C45.2568 70.572 78.8082 40 119.5 40C160.192 40 193.743 70.572 198.438 110H194.408C189.736 72.7869 157.98 44 119.5 44C81.0202 44 49.2639 72.7869 44.592 110H40.5618Z" fill="#FFEC65" fill-opacity="0.6"/>
<path d="M52.6633 110H95.5985L120 134.862L144.402 110H186.337C181.719 77.219 153.555 52 119.5 52C85.4453 52 57.2807 77.219 52.6633 110Z" fill="#FFEC65"/>
</svg>
