<svg width="240" height="240" viewBox="0 0 240 240" fill="none" xmlns="http://www.w3.org/2000/svg">
<path d="M207 120H210C210 70.2944 169.706 30 120 30C70.2944 30 30 70.2944 30 120H33C33 71.9512 71.9512 33 120 33C168.049 33 207 71.9512 207 120Z" fill="#FFEC65" fill-opacity="0.2"/>
<path d="M198.998 120C198.999 119.833 199 119.667 199 119.5C199 75.5934 163.407 40 119.5 40C75.5934 40 40 75.5934 40 119.5C40 119.667 40.0005 119.833 40.0015 120H44.0016C44.0005 119.833 44 119.667 44 119.5C44 77.8025 77.8025 44 119.5 44C161.198 44 195 77.8025 195 119.5C195 119.667 194.999 119.833 194.998 120H198.998Z" fill="#FFEC65" fill-opacity="0.6"/>
<path d="M186.998 120H144.402L120 144.862L95.5985 120H52.0018C52.0006 119.833 52 119.667 52 119.5C52 82.2208 82.2208 52 119.5 52C156.779 52 187 82.2208 187 119.5C187 119.667 186.999 119.833 186.998 120Z" fill="#FFEC65"/>
<path d="M123.58 165.491L148.598 140H210C212.761 140 215 137.761 215 135C215 132.239 212.761 130 210 130H144.402L120 154.862L95.5985 130H30C27.2386 130 25 132.239 25 135C25 137.761 27.2386 140 30 140H91.4015L116.42 165.491C116.436 165.507 116.453 165.524 116.469 165.54C116.879 165.949 117.342 166.272 117.836 166.509C119.199 167.163 120.799 167.164 122.164 166.509C122.658 166.272 123.121 165.949 123.531 165.54C123.547 165.524 123.564 165.507 123.58 165.491Z" fill="#303030" fill-opacity="0.7"/>
</svg>
